<svg xmlns="http://www.w3.org/2000/svg" fill="none" viewBox="0 0 96 96"><path fill="#ee4c2c" d="M47.9469 1v13.6862l-21.0288 21.028c-11.0056 11.1623 -11.0045 29.1182 0.0034 40.4829l0.3369 0.3424c11.2461 11.4582 29.7066 11.4582 41.1648 0 11.3437 -11.1336 11.4571 -29.3381 0.3403 -40.8189l-0.3403 -0.3459 7.0023 -7.0022c15.2776 15.2776 15.2776 39.7855 0 55.1693 -14.9594 15.2776 -39.5734 15.2776 -54.8511 0 -15.12483 -15.1249 -15.27607 -39.4003 -0.4537 -54.7082l0.4537 -0.4611L47.9469 1Zm13.7923 15.4898c2.8126 0 5.0926 2.2801 5.0926 5.0926s-2.28 5.0925 -5.0926 5.0925c-2.8125 0 -5.0925 -2.28 -5.0925 -5.0925 0 -2.8125 2.28 -5.0926 5.0925 -5.0926Z" stroke-width="1"></path></svg>