<?xml version="1.0" encoding="UTF-8" standalone="no"?>
<!-- Created with Inkscape (http://www.inkscape.org/) -->

<svg
   width="6.3499918mm"
   height="3.1620648mm"
   viewBox="0 0 6.3499918 3.1620648"
   version="1.1"
   id="svg1"
   xml:space="preserve"
   xmlns:inkscape="http://www.inkscape.org/namespaces/inkscape"
   xmlns:sodipodi="http://sodipodi.sourceforge.net/DTD/sodipodi-0.dtd"
   xmlns="http://www.w3.org/2000/svg"
   xmlns:svg="http://www.w3.org/2000/svg"><sodipodi:namedview
     id="namedview1"
     pagecolor="#ffffff"
     bordercolor="#000000"
     borderopacity="0.25"
     inkscape:showpageshadow="2"
     inkscape:pageopacity="0.0"
     inkscape:pagecheckerboard="0"
     inkscape:deskcolor="#d1d1d1"
     inkscape:document-units="mm"><inkscape:page
       x="0"
       y="0"
       width="6.3499918"
       height="3.1620648"
       id="page2"
       margin="0"
       bleed="0" /></sodipodi:namedview><defs
     id="defs1" /><g
     inkscape:label="Capa 1"
     inkscape:groupmode="layer"
     id="layer1"
     transform="translate(-101.86457,-146.85026)"><path
       d="m 107.40866,147.29738 h 0.11483 c 0.0281,0 0.0511,0.023 0.0511,0.0521 v 0.98584 a 0.05212292,0.05212292 0 0 1 -0.0511,0.0511 h -0.11483 a 0.05212292,0.05212292 0 0 1 -0.0521,-0.0511 v -0.98584 c 0,-0.0291 0.023,-0.0521 0.0521,-0.0521 z m 0.32094,0.28707 h 0.1151 c 0.0278,0 0.0508,0.023 0.0508,0.0519 v 0.66701 a 0.05212292,0.05212292 0 0 1 -0.0508,0.0511 h -0.1151 a 0.05212292,0.05212292 0 0 1 -0.0521,-0.0511 v -0.66675 c 0,-0.0302 0.023,-0.0521 0.0521,-0.0521 z m 0.31909,0.36592 h 0.11377 c 0.0291,0 0.0521,0.023 0.0521,0.0521 v 0.18997 a 0.05212292,0.05212292 0 0 1 -0.0521,0.0508 h -0.11377 a 0.05212292,0.05212292 0 0 1 -0.0521,-0.0519 v -0.18998 a 0.05000625,0.05000625 0 0 1 0.0521,-0.0503 z m -0.96017,-0.74798 h 0.11403 a 0.05212292,0.05212292 0 0 1 0.0521,0.0519 v 0.19024 a 0.05212292,0.05212292 0 0 1 -0.0521,0.05 h -0.11509 a 0.05212292,0.05212292 0 0 1 -0.0519,-0.0503 v -0.18997 a 0.05212292,0.05212292 0 0 1 0.0519,-0.0519 z m 0,0.38206 h 0.11403 a 0.05212292,0.05212292 0 0 1 0.0521,0.0519 v 0.17409 a 0.05212292,0.05212292 0 0 1 -0.0521,0.0511 h -0.11509 a 0.05212292,0.05212292 0 0 1 -0.0519,-0.0511 v -0.1741 a 0.05212292,0.05212292 0 0 1 0.0519,-0.0519 z m 0,0.36698 h 0.11403 a 0.05212292,0.05212292 0 0 1 0.0521,0.0511 v 0.28575 a 0.05212292,0.05212292 0 0 1 -0.0521,0.0511 h -0.11509 a 0.05212292,0.05212292 0 0 1 -0.0519,-0.0508 v -0.28602 a 0.05212292,0.05212292 0 0 1 0.0519,-0.0511 z m -0.32809,-0.82894 h 0.1151 a 0.05212292,0.05212292 0 0 1 0.0511,0.0519 v 0.30109 a 0.05212292,0.05212292 0 0 1 -0.0511,0.0519 h -0.11483 a 0.05212292,0.05212292 0 0 1 -0.0521,-0.0519 v -0.30109 a 0.05212292,0.05212292 0 0 1 0.0521,-0.0519 z m 0,0.50985 h 0.1151 a 0.05212292,0.05212292 0 0 1 0.0511,0.0521 v 0.57203 a 0.05212292,0.05212292 0 0 1 -0.0511,0.0508 h -0.11483 a 0.05212292,0.05212292 0 0 1 -0.0521,-0.0508 v -0.57203 a 0.05212292,0.05212292 0 0 1 0.0521,-0.0521 z m -0.31856,-0.60484 h 0.1151 a 0.05212292,0.05212292 0 0 1 0.0519,0.0508 v 1.21021 a 0.05212292,0.05212292 0 0 1 -0.0519,0.0508 h -0.1151 a 0.05212292,0.05212292 0 0 1 -0.0521,-0.0508 v -1.21021 a 0.05212292,0.05212292 0 0 1 0.0521,-0.0508 z m 0,2.69187 h 0.1151 a 0.05212292,0.05212292 0 0 1 0.0519,0.0521 v 0.18997 a 0.05212292,0.05212292 0 0 1 -0.0519,0.0508 h -0.1151 a 0.05212292,0.05212292 0 0 1 -0.0521,-0.0519 v -0.18997 a 0.05212292,0.05212292 0 0 1 0.0521,-0.0503 z m -0.32808,-0.25505 h 0.1151 a 0.05212292,0.05212292 0 0 1 0.0518,0.0521 v 0.44397 a 0.05212292,0.05212292 0 0 1 -0.0518,0.0519 h -0.11404 a 0.05212292,0.05212292 0 0 1 -0.0511,-0.0519 v -0.44424 a 0.05212292,0.05212292 0 0 1 0.0511,-0.0521 z m 0,-1.35388 h 0.1151 a 0.05212292,0.05212292 0 0 1 0.0518,0.0519 v 0.30004 a 0.05212292,0.05212292 0 0 1 -0.0518,0.0529 h -0.11404 a 0.05212292,0.05212292 0 0 1 -0.0511,-0.0519 v -0.3011 a 0.05212292,0.05212292 0 0 1 0.0511,-0.0519 z m 0,-1.16311 h 0.1151 a 0.05212292,0.05212292 0 0 1 0.0518,0.0521 v 0.95382 a 0.05212292,0.05212292 0 0 1 -0.0518,0.0521 h -0.11404 a 0.05212292,0.05212292 0 0 1 -0.0511,-0.0521 v -0.95382 a 0.05212292,0.05212292 0 0 1 0.0511,-0.0521 z m -0.32279,0.0159 h 0.11483 a 0.05212292,0.05212292 0 0 1 0.0521,0.0521 v 0.55616 a 0.05212292,0.05212292 0 0 1 -0.0521,0.0508 h -0.11509 a 0.05212292,0.05212292 0 0 1 -0.0508,-0.0508 v -0.55616 a 0.05212292,0.05212292 0 0 1 0.0508,-0.0519 z m 0,0.76517 h 0.11483 a 0.05212292,0.05212292 0 0 1 0.0521,0.0511 v 1.62401 a 0.05212292,0.05212292 0 0 1 -0.0521,0.0519 h -0.11509 a 0.05212292,0.05212292 0 0 1 -0.0508,-0.0519 v -1.62401 a 0.05212292,0.05212292 0 0 1 0.0508,-0.0511 z m 0,1.83198 h 0.11483 a 0.05212292,0.05212292 0 0 1 0.0521,0.0511 v 0.30163 a 0.05212292,0.05212292 0 0 1 -0.0521,0.0511 h -0.11509 a 0.05212292,0.05212292 0 0 1 -0.0508,-0.0511 v -0.30163 a 0.05212292,0.05212292 0 0 1 0.0508,-0.0511 z m -0.32015,-2.55005 h 0.11377 a 0.05212292,0.05212292 0 0 1 0.0521,0.0529 v 1.30308 a 0.05212292,0.05212292 0 0 1 -0.0519,0.0521 h -0.11509 a 0.05212292,0.05212292 0 0 1 -0.0511,-0.0521 v -1.3028 a 0.05212292,0.05212292 0 0 1 0.0511,-0.0521 z m 0,1.51394 h 0.11377 a 0.05212292,0.05212292 0 0 1 0.0521,0.0521 v 1.034 a 0.05212292,0.05212292 0 0 1 -0.0519,0.0521 h -0.11509 a 0.05212292,0.05212292 0 0 1 -0.0511,-0.0521 v -1.034 a 0.05212292,0.05212292 0 0 1 0.0511,-0.0521 z m -0.32199,-1.56104 h 0.11509 a 0.05212292,0.05212292 0 0 1 0.0508,0.0521 v 0.84111 a 0.05212292,0.05212292 0 0 1 -0.0508,0.0519 h -0.11509 a 0.05212292,0.05212292 0 0 1 -0.0521,-0.0519 v -0.84005 a 0.05212292,0.05212292 0 0 1 0.0521,-0.0521 z m 0,1.05225 h 0.11509 a 0.05212292,0.05212292 0 0 1 0.0508,0.0508 v 0.70008 a 0.05212292,0.05212292 0 0 1 -0.0508,0.0511 h -0.11509 a 0.05212292,0.05212292 0 0 1 -0.0521,-0.0511 v -0.70008 a 0.05212292,0.05212292 0 0 1 0.0521,-0.0508 z m 0,0.90699 h 0.11509 a 0.05212292,0.05212292 0 0 1 0.0508,0.0519 v 0.31697 a 0.05212292,0.05212292 0 0 1 -0.0508,0.0521 h -0.11509 a 0.05212292,0.05212292 0 0 1 -0.0521,-0.0521 v -0.31697 a 0.05212292,0.05212292 0 0 1 0.0521,-0.0519 z m -0.3228,-1.9902 h 0.11483 a 0.05212292,0.05212292 0 0 1 0.0519,0.0503 v 0.3818 a 0.05212292,0.05212292 0 0 1 -0.0519,0.0511 h -0.11615 a 0.05212292,0.05212292 0 0 1 -0.0519,-0.0511 v -0.381 a 0.05212292,0.05212292 0 0 1 0.0519,-0.0519 z m 0,0.58923 h 0.11483 a 0.05212292,0.05212292 0 0 1 0.0519,0.0508 v 1.4642 a 0.05212292,0.05212292 0 0 1 -0.0519,0.0519 h -0.11615 a 0.05212292,0.05212292 0 0 1 -0.0519,-0.0519 v -1.4642 a 0.05212292,0.05212292 0 0 1 0.0519,-0.0508 z m -0.32411,2.16482 h 0.11483 a 0.05212292,0.05212292 0 0 1 0.0521,0.0521 v 0.22093 a 0.05212292,0.05212292 0 0 1 -0.0521,0.0521 h -0.11483 a 0.05212292,0.05212292 0 0 1 -0.0511,-0.0521 v -0.22093 a 0.05212292,0.05212292 0 0 1 0.0511,-0.0521 z m 0,-2.81993 h 0.11483 a 0.05212292,0.05212292 0 0 1 0.0521,0.0521 v 1.35282 a 0.05212292,0.05212292 0 0 1 -0.0521,0.0511 h -0.11483 a 0.05212292,0.05212292 0 0 1 -0.0511,-0.0511 v -1.35202 a 0.05212292,0.05212292 0 0 1 0.0511,-0.0519 z m 0,1.5621 h 0.11483 a 0.05212292,0.05212292 0 0 1 0.0521,0.0508 v 0.55616 a 0.05212292,0.05212292 0 0 1 -0.0521,0.0519 h -0.11483 a 0.05212292,0.05212292 0 0 1 -0.0511,-0.0519 v -0.55642 a 0.05212292,0.05212292 0 0 1 0.0511,-0.0508 z m -0.32306,1.01997 h 0.11483 a 0.05212292,0.05212292 0 0 1 0.0511,0.05 v 0.4609 a 0.05212292,0.05212292 0 0 1 -0.0511,0.0521 h -0.11483 a 0.05212292,0.05212292 0 0 1 -0.0521,-0.0521 v -0.45984 a 0.05212292,0.05212292 0 0 1 0.0521,-0.0521 z m 0,-1.59411 h 0.11483 a 0.05212292,0.05212292 0 0 1 0.0511,0.0521 v 1.12977 a 0.05212292,0.05212292 0 0 1 -0.0511,0.0511 h -0.11483 a 0.05212292,0.05212292 0 0 1 -0.0521,-0.0519 v -1.12898 a 0.05212292,0.05212292 0 0 1 0.0521,-0.0503 z m 0,-1.00383 h 0.11483 a 0.05212292,0.05212292 0 0 1 0.0511,0.0519 v 0.79508 a 0.05212292,0.05212292 0 0 1 -0.0511,0.0519 h -0.11483 a 0.05212292,0.05212292 0 0 1 -0.0521,-0.0519 v -0.79534 a 0.05212292,0.05212292 0 0 1 0.0521,-0.0519 z m -0.32305,0.0159 h 0.11509 a 0.05212292,0.05212292 0 0 1 0.0519,0.0521 v 0.18998 a 0.05212292,0.05212292 0 0 1 -0.0519,0.0508 h -0.11509 a 0.05212292,0.05212292 0 0 1 -0.0513,-0.0508 v -0.18998 a 0.05212292,0.05212292 0 0 1 0.0511,-0.0521 z m 0,0.38312 h 0.11509 a 0.05212292,0.05212292 0 0 1 0.0519,0.0508 v 1.46605 a 0.05212292,0.05212292 0 0 1 -0.0519,0.0511 h -0.11509 a 0.05212292,0.05212292 0 0 1 -0.0511,-0.0511 v -1.46473 a 0.05212292,0.05212292 0 0 1 0.0511,-0.0511 z m 0,1.67296 h 0.11509 a 0.05212292,0.05212292 0 0 1 0.0519,0.0511 v 0.39688 a 0.05212292,0.05212292 0 0 1 -0.0519,0.0521 h -0.11509 a 0.05212292,0.05212292 0 0 1 -0.0511,-0.0521 v -0.39688 a 0.05212292,0.05212292 0 0 1 0.0511,-0.0511 z m 0,0.60484 h 0.11509 a 0.05212292,0.05212292 0 0 1 0.0519,0.0521 v 0.25294 a 0.05212292,0.05212292 0 0 1 -0.0519,0.0521 h -0.11509 a 0.05212292,0.05212292 0 0 1 -0.0511,-0.0521 v -0.25294 a 0.05212292,0.05212292 0 0 1 0.0511,-0.0521 z m -0.32306,-2.5326 h 0.11483 a 0.05212292,0.05212292 0 0 1 0.0511,0.0519 v 0.95409 a 0.05212292,0.05212292 0 0 1 -0.0511,0.0511 h -0.11509 a 0.05212292,0.05212292 0 0 1 -0.0519,-0.0511 v -0.95435 a 0.05212292,0.05212292 0 0 1 0.0519,-0.0519 z m 0,1.16285 h 0.11483 a 0.05212292,0.05212292 0 0 1 0.0511,0.0511 v 0.22225 a 0.05212292,0.05212292 0 0 1 -0.0511,0.0519 h -0.11509 a 0.05212292,0.05212292 0 0 1 -0.0519,-0.0521 v -0.22199 a 0.05212292,0.05212292 0 0 1 0.0519,-0.0511 z m 0,0.3982 h 0.11377 a 0.05212292,0.05212292 0 0 1 0.0521,0.0519 v 0.98611 a 0.05212292,0.05212292 0 0 1 -0.0521,0.0518 h -0.11377 a 0.05212292,0.05212292 0 0 1 -0.0521,-0.0518 v -0.98611 a 0.05212292,0.05212292 0 0 1 0.0519,-0.0519 z m -0.34052,-0.76544 h 0.14817 a 0.03598333,0.03598333 0 0 1 0.0349,0.036 v 0.73104 a 0.03598333,0.03598333 0 0 1 -0.0349,0.036 h -0.14711 a 0.03598333,0.03598333 0 0 1 -0.036,-0.036 v -0.72998 a 0.03598333,0.03598333 0 0 1 0.036,-0.037 z m 0,0.90805 h 0.14817 a 0.03598333,0.03598333 0 0 1 0.0349,0.036 v 0.65696 a 0.03598333,0.03598333 0 0 1 -0.0349,0.036 h -0.14711 a 0.03598333,0.03598333 0 0 1 -0.036,-0.036 v -0.65484 a 0.03598333,0.03598333 0 0 1 0.036,-0.036 z m 0,-1.57692 h 0.14817 a 0.03598333,0.03598333 0 0 1 0.0349,0.036 v 0.508 a 0.03598333,0.03598333 0 0 1 -0.0349,0.036 h -0.14711 a 0.03598333,0.03598333 0 0 1 -0.036,-0.036 v -0.508 a 0.03598333,0.03598333 0 0 1 0.036,-0.036 z m -0.322,0.15796 h 0.14605 a 0.03598333,0.03598333 0 0 1 0.036,0.0349 v 0.76306 a 0.03598333,0.03598333 0 0 1 -0.036,0.0349 h -0.14605 a 0.03598333,0.03598333 0 0 1 -0.036,-0.0349 v -0.76306 a 0.03598333,0.03598333 0 0 1 0.036,-0.0349 z m 0,0.92604 h 0.14605 a 0.03598333,0.03598333 0 0 1 0.036,0.036 v 1.03293 a 0.03598333,0.03598333 0 0 1 -0.036,0.036 h -0.1471 a 0.03598333,0.03598333 0 0 1 -0.0349,-0.036 v -1.03187 a 0.03598333,0.03598333 0 0 1 0.0349,-0.036 z m -0.30903,1.51394 h 0.11509 a 0.05212292,0.05212292 0 0 1 0.0521,0.0521 v 0.18997 a 0.05212292,0.05212292 0 0 1 -0.0521,0.0508 h -0.11377 a 0.05212292,0.05212292 0 0 1 -0.0513,-0.0519 v -0.18997 a 0.05212292,0.05212292 0 0 1 0.0511,-0.0503 z m -0.0159,-0.67786 h 0.14896 a 0.03598333,0.03598333 0 0 1 0.036,0.036 v 0.33391 a 0.03598333,0.03598333 0 0 1 -0.036,0.036 h -0.14817 a 0.03598333,0.03598333 0 0 1 -0.0349,-0.036 v -0.33391 a 0.03598333,0.03598333 0 0 1 0.0352,-0.036 z m 0,-1.25015 h 0.14896 a 0.03598333,0.03598333 0 0 1 0.036,0.0349 v 1.07818 a 0.03598333,0.03598333 0 0 1 -0.036,0.036 h -0.14817 a 0.03598333,0.03598333 0 0 1 -0.0349,-0.036 v -1.07818 a 0.03598333,0.03598333 0 0 1 0.0352,-0.0349 z m -0.32094,1.57427 h 0.14684 a 0.03598333,0.03598333 0 0 1 0.036,0.0357 v 0.57494 a 0.03598333,0.03598333 0 0 1 -0.036,0.036 h -0.14817 a 0.03598333,0.03598333 0 0 1 -0.0357,-0.036 v -0.57494 a 0.03598333,0.03598333 0 0 1 0.036,-0.036 z m 0.0159,-0.85329 h 0.11404 a 0.05212292,0.05212292 0 0 1 0.0521,0.0511 v 0.66305 a 0.05212292,0.05212292 0 0 1 -0.0521,0.0519 h -0.1151 a 0.05212292,0.05212292 0 0 1 -0.0519,-0.0519 v -0.66305 a 0.05212292,0.05212292 0 0 1 0.0519,-0.0511 z m -0.33867,0.71306 h 0.14605 c 0.0199,0 0.036,0.0159 0.036,0.036 v 0.54292 c 0,0.0201 -0.0159,0.036 -0.036,0.036 h -0.1471 a 0.03598333,0.03598333 0 0 1 -0.036,-0.0357 v -0.54293 c 0,-0.0201 0.0159,-0.036 0.036,-0.036 z"
       id="path1"
       style="fill:#2e8fff;fill-opacity:1;stroke-width:0.264583"
       inkscape:export-filename="path1.svg"
       inkscape:export-xdpi="96"
       inkscape:export-ydpi="96" /></g></svg>
